<?xml version="1.0" encoding="UTF-8"?>
<svg width="700px" height="700px" viewBox="0 0 700 700" version="1.1" xmlns="http://www.w3.org/2000/svg" xmlns:xlink="http://www.w3.org/1999/xlink">
    <title>Oval</title>
    <g id="Page-1" stroke="none" stroke-width="1" fill="none" fill-rule="evenodd">
        <circle id="Oval" fill="#F6F7FC" fill-rule="nonzero" cx="350.5" cy="350.5" r="256.5"></circle>
        <g id="nuxt" transform="translate(149.000000, 170.000000)" fill-rule="nonzero">
            <path d="M231,83.1951724 L217.125898,107.51511 L169.677724,24.3206337 L24.0197829,279.680052 L122.639939,279.680052 C122.639939,293.111582 133.396039,304 146.664344,304 L24.019793,304 C15.4375204,304 7.50793026,299.362318 3.21750849,291.837998 C-1.07291327,284.313688 -1.07247746,275.043975 3.21866392,267.520089 L148.876595,12.1606498 C153.168031,4.63565379 161.099354,0 169.682731,0 C178.266088,0 186.197411,4.63565379 190.488857,12.1606498 L231,83.1951623 L231,83.1951724 Z" id="Path" fill="#00C58E"></path>
            <path d="M335.811709,267.487834 L244.834211,107.341434 L231.004981,83 L217.175772,107.341434 L126.208245,267.487834 C121.930992,275.01838 121.930558,284.296287 126.207104,291.827248 C130.483639,299.358209 138.387593,304 146.942108,304 L315.047932,304 C323.604215,304 331.511432,299.363279 335.790413,291.831641 C340.069383,284.300014 340.069898,275.019946 335.791746,267.487834 L335.811709,267.487834 Z M146.942088,279.658556 L231.005001,131.682878 L315.047932,279.658556 L146.942088,279.658556 L146.942088,279.658556 Z" id="Shape" fill="#2F495E"></path>
            <path d="M399.811394,291.87205 C395.560756,299.375413 387.705855,304 379.204568,304 L314.528056,304 C327.672438,304 338.328051,293.140258 338.328051,279.744089 L379.154968,279.744089 L263.308491,75.2565949 L244.74448,108.032404 L231,83.7764933 L242.701665,63.1286346 C246.953026,55.6234495 254.810257,51 263.313461,51 C271.816655,51 279.673885,55.6234495 283.925246,63.1286346 L399.811404,267.616139 C404.062865,275.120942 404.062865,284.367237 399.811404,291.87204 L399.811394,291.87205 Z" id="Path" fill="#108775"></path>
        </g>
    </g>
</svg>